<?xml version="1.0" encoding="UTF-8" standalone="no"?>
<!DOCTYPE svg PUBLIC "-//W3C//DTD SVG 1.1//EN" "http://www.w3.org/Graphics/SVG/1.1/DTD/svg11.dtd">
<svg width="100%" height="100%" viewBox="0 0 500 500" version="1.1" xmlns="http://www.w3.org/2000/svg" xmlns:xlink="http://www.w3.org/1999/xlink" xml:space="preserve" xmlns:serif="http://www.serif.com/" style="fill-rule:evenodd;clip-rule:evenodd;stroke-linejoin:round;stroke-miterlimit:2;">
    <path d="M500,125L500,375C500,443.989 443.989,500 375,500L125,500C56.011,500 0,443.989 0,375L0,125C0,56.011 56.011,0 125,0L375,0C443.989,0 500,56.011 500,125Z" style="fill:url(#_Linear1);"/>
    <g transform="matrix(1.851258,0,0,1.891526,-129.607277,73.026602)">
        <g transform="matrix(285.483745,0,0,285.483745,119.094048,193.480475)">
            <path d="M0.308,0.012C0.274,0.012 0.241,0.008 0.21,-0.001C0.179,-0.01 0.151,-0.022 0.127,-0.038C0.102,-0.054 0.081,-0.072 0.065,-0.092C0.049,-0.111 0.039,-0.132 0.035,-0.155L0.194,-0.2C0.201,-0.18 0.214,-0.164 0.232,-0.149C0.251,-0.135 0.274,-0.128 0.302,-0.127C0.33,-0.126 0.352,-0.133 0.371,-0.146C0.389,-0.159 0.398,-0.177 0.398,-0.198C0.398,-0.215 0.392,-0.229 0.379,-0.242C0.366,-0.255 0.347,-0.264 0.323,-0.271L0.224,-0.296C0.189,-0.305 0.159,-0.319 0.133,-0.337C0.107,-0.356 0.088,-0.378 0.073,-0.405C0.059,-0.432 0.052,-0.463 0.052,-0.498C0.052,-0.565 0.074,-0.618 0.119,-0.655C0.164,-0.693 0.227,-0.712 0.308,-0.712C0.352,-0.712 0.391,-0.706 0.425,-0.694C0.459,-0.682 0.487,-0.663 0.511,-0.639C0.534,-0.615 0.553,-0.585 0.567,-0.549L0.409,-0.502C0.403,-0.52 0.392,-0.536 0.374,-0.551C0.357,-0.566 0.334,-0.573 0.306,-0.573C0.278,-0.573 0.256,-0.567 0.24,-0.554C0.225,-0.541 0.217,-0.523 0.217,-0.499C0.217,-0.482 0.223,-0.469 0.236,-0.458C0.248,-0.447 0.266,-0.439 0.288,-0.433L0.387,-0.408C0.444,-0.394 0.488,-0.368 0.519,-0.329C0.551,-0.291 0.567,-0.247 0.567,-0.199C0.567,-0.155 0.557,-0.118 0.536,-0.086C0.516,-0.055 0.486,-0.03 0.448,-0.013C0.409,0.004 0.362,0.012 0.308,0.012Z" style="fill:white;fill-rule:nonzero;"/>
        </g>
        <g transform="matrix(285.483745,0,0,285.483745,291.354999,193.480475)">
        </g>
    </g>
    <defs>
        <linearGradient id="_Linear1" x1="0" y1="0" x2="1" y2="0" gradientUnits="userSpaceOnUse" gradientTransform="matrix(500,500,-500,500,0,0)"><stop offset="0" style="stop-color:rgb(145,219,242);stop-opacity:1"/><stop offset="0.5" style="stop-color:rgb(0,153,238);stop-opacity:1"/><stop offset="1" style="stop-color:rgb(56,76,222);stop-opacity:1"/></linearGradient>
    </defs>
</svg>
