<?xml version="1.0" encoding="UTF-8" standalone="no"?>
<!DOCTYPE svg PUBLIC "-//W3C//DTD SVG 1.1//EN" "http://www.w3.org/Graphics/SVG/1.1/DTD/svg11.dtd">
<svg width="100%" height="100%" viewBox="0 0 500 500" version="1.1" xmlns="http://www.w3.org/2000/svg" xmlns:xlink="http://www.w3.org/1999/xlink" xml:space="preserve" xmlns:serif="http://www.serif.com/" style="fill-rule:evenodd;clip-rule:evenodd;stroke-linejoin:round;stroke-miterlimit:2;">
    <path d="M500,0L500,500L0,500L0,0L500,0ZM464,36L36,36L36,464L464,464L464,36Z"/>
    <g transform="matrix(2.497271,0,0,1.648148,-415.112763,203.795804)">
        <g transform="matrix(288,0,0,288,179.935799,133.154007)">
            <path d="M0.303,0.01C0.253,0.01 0.21,0.001 0.173,-0.016C0.136,-0.034 0.108,-0.059 0.088,-0.091C0.067,-0.123 0.057,-0.162 0.057,-0.206L0.18,-0.206C0.18,-0.173 0.191,-0.147 0.214,-0.128C0.236,-0.109 0.266,-0.099 0.303,-0.099C0.339,-0.099 0.368,-0.109 0.389,-0.128C0.41,-0.147 0.42,-0.172 0.42,-0.204C0.42,-0.228 0.413,-0.249 0.4,-0.268C0.386,-0.286 0.367,-0.299 0.341,-0.305L0.243,-0.33C0.19,-0.344 0.148,-0.369 0.118,-0.405C0.087,-0.442 0.072,-0.486 0.072,-0.536C0.072,-0.578 0.081,-0.614 0.099,-0.644C0.118,-0.675 0.144,-0.698 0.178,-0.715C0.211,-0.732 0.251,-0.74 0.296,-0.74C0.342,-0.74 0.382,-0.732 0.416,-0.715C0.45,-0.698 0.477,-0.675 0.496,-0.644C0.515,-0.614 0.524,-0.578 0.524,-0.538L0.402,-0.538C0.402,-0.566 0.392,-0.589 0.373,-0.606C0.354,-0.623 0.328,-0.632 0.296,-0.632C0.265,-0.632 0.24,-0.623 0.222,-0.607C0.203,-0.59 0.194,-0.567 0.194,-0.54C0.194,-0.518 0.2,-0.499 0.213,-0.484C0.226,-0.469 0.245,-0.459 0.268,-0.452L0.369,-0.427C0.423,-0.414 0.465,-0.387 0.496,-0.347C0.527,-0.307 0.543,-0.259 0.543,-0.204C0.543,-0.16 0.533,-0.123 0.513,-0.091C0.494,-0.059 0.466,-0.034 0.43,-0.016C0.394,0.001 0.352,0.01 0.303,0.01Z" style="fill-rule:nonzero;"/>
        </g>
        <g transform="matrix(288,0,0,288,352.735799,133.154007)">
        </g>
    </g>
</svg>
